<?xml version="1.0" standalone="no"?><!DOCTYPE svg PUBLIC "-//W3C//DTD SVG 1.1//EN" "http://www.w3.org/Graphics/SVG/1.1/DTD/svg11.dtd"><svg t="1507620040851" class="icon" style="" viewBox="0 0 1024 1024" version="1.1" xmlns="http://www.w3.org/2000/svg" p-id="6295" xmlns:xlink="http://www.w3.org/1999/xlink" width="64" height="64"><defs><style type="text/css"></style></defs><path d="M760.699417 708.111727C760.699417 713.59817 756.262388 718.046916 750.790394 718.046916L679.446105 718.046916C674.34301 718.046916 670.165576 713.858451 670.165576 708.74188L670.165576 448.66669 573.326303 541.977313C570.313631 545.241096 565.743389 547.234297 560.998944 547.234297L463.695132 547.234297C459.408394 547.234297 453.741703 543.422555 452.648671 542.658837L452.358333 542.429378 353.698477 448.605045 353.698477 708.762429C353.698477 713.889273 349.555202 718.046916 344.438442 718.046916L272.206065 718.046916C267.102969 718.046916 262.925535 713.858451 262.925535 708.74188L262.925535 308.180196C262.925535 301.375227 268.448766 295.844261 275.239231 295.844261 275.239231 295.844261 322.64952 295.851111 322.912531 295.851111 325.156664 295.851111 327.329067 296.522361 329.200884 297.796367 329.433155 297.95048 331.711443 300.464244 506.992887 462.622529 509.684479 465.11232 513.855081 465.132867 516.55009 462.643078L692.033059 300.440271C694.447978 298.282681 697.484559 295.563433 701.767881 295.878509L748.389139 295.844261C755.176188 295.844261 760.699417 301.375227 760.699417 308.180196L760.699417 708.111727ZM596.061381 700.453996C580.014296 700.453996 566.955972 687.371468 566.955972 671.292286 566.955972 655.202832 580.014296 642.110029 596.061381 642.110029 612.108466 642.110029 625.16679 655.202832 625.16679 671.292286 625.16679 687.371468 612.108466 700.453996 596.061381 700.453996L596.061381 700.453996ZM427.566989 700.453996C411.516488 700.453996 398.458164 687.371468 398.458164 671.292286 398.458164 655.202832 411.516488 642.110029 427.566989 642.110029 443.617489 642.110029 456.668982 655.202832 456.668982 671.292286 456.668982 687.371468 443.617489 700.453996 427.566989 700.453996L427.566989 700.453996ZM915.008296 218.28747 564.431749 15.347313C531.873041-3.499063 491.755328-3.499063 459.193203 15.347313L108.620072 218.28747C76.057948 237.137271 56.0008 271.970359 56.0008 309.666535L56.0008 715.543425C56.0008 753.239602 76.057948 788.076116 108.620072 806.922492L459.193203 1009.862648C491.755328 1028.712448 531.873041 1028.712448 564.431749 1009.862648L915.008296 806.922492C947.567006 788.076116 967.62757 753.239602 967.62757 715.543425L967.62757 309.666535C967.62757 271.970359 947.567006 237.137271 915.008296 218.28747L915.008296 218.28747Z" p-id="6296"></path></svg>